HIERARCHY
ROOT Hips
{
	OFFSET -14.64140 90.27770 -84.91600
	CHANNELS 6 Xposition Yposition Zposition Zrotation Xrotation Yrotation
	JOINT Spine
	{
		OFFSET 0.00000 13.20850 -1.60436
		CHANNELS 3 Zrotation Xrotation Yrotation
		JOINT Spine1
		{
			OFFSET 0.00000 8.61716 0.00000
			CHANNELS 3 Zrotation Xrotation Yrotation
			JOINT Spine2
			{
				OFFSET 0.00000 8.61717 0.00000
				CHANNELS 3 Zrotation Xrotation Yrotation
				JOINT Spine3
				{
					OFFSET 0.00000 8.61717 0.00000
					CHANNELS 3 Zrotation Xrotation Yrotation
					JOINT Neck
					{
						OFFSET 0.00000 11.07920 1.10792
						CHANNELS 3 Zrotation Xrotation Yrotation
						JOINT Neck1
						{
							OFFSET 0.00000 7.08032 0.00000
							CHANNELS 3 Zrotation Xrotation Yrotation
							JOINT Head
							{
								OFFSET 0.00000 7.08031 0.00000
								CHANNELS 3 Zrotation Xrotation Yrotation
								End site
								{
									OFFSET 0.00000 0.00000 0.00000
								}
							}
						}
					}
					JOINT RightShoulder
					{
						OFFSET -0.01000 7.91373 5.19711
						CHANNELS 3 Zrotation Xrotation Yrotation
						JOINT RightArm
						{
							OFFSET -18.41580 0.00000 0.00000
							CHANNELS 3 Zrotation Xrotation Yrotation
							JOINT RightForeArm
							{
								OFFSET -29.11090 0.00000 0.00000
								CHANNELS 3 Zrotation Xrotation Yrotation
								JOINT RightHand
								{
									OFFSET -24.65040 0.00000 0.00000
									CHANNELS 3 Zrotation Xrotation Yrotation
									JOINT RightHandThumb1
									{
										OFFSET -5.35114 -0.85590 3.97906
										CHANNELS 3 Zrotation Xrotation Yrotation
										JOINT RightHandThumb2
										{
											OFFSET -4.52789 0.00000 0.00000
											CHANNELS 3 Zrotation Xrotation Yrotation
											JOINT RightHandThumb3
											{
												OFFSET -2.46976 0.00000 0.00000
												CHANNELS 3 Zrotation Xrotation Yrotation
												End site
												{
													OFFSET 0.00000 0.00000 0.00000
												}
											}
										}
									}
									JOINT RightHandIndex1
									{
										OFFSET -14.26970 0.00000 2.88139
										CHANNELS 3 Zrotation Xrotation Yrotation
										JOINT RightHandIndex2
										{
											OFFSET -5.48836 0.00000 0.00000
											CHANNELS 3 Zrotation Xrotation Yrotation
											JOINT RightHandIndex3
											{
												OFFSET -3.01859 0.00000 0.00000
												CHANNELS 3 Zrotation Xrotation Yrotation
												End site
												{
													OFFSET 0.00000 0.00000 0.00000
												}
											}
										}
									}
									JOINT RightHandMiddle1
									{
										OFFSET -14.26970 0.00000 -0.09147
										CHANNELS 3 Zrotation Xrotation Yrotation
										JOINT RightHandMiddle2
										{
											OFFSET -6.17441 0.00000 0.00000
											CHANNELS 3 Zrotation Xrotation Yrotation
											JOINT RightHandMiddle3
											{
												OFFSET -3.56743 0.00000 0.00000
												CHANNELS 3 Zrotation Xrotation Yrotation
												End site
												{
													OFFSET 0.00000 0.00000 0.00000
												}
											}
										}
									}
									JOINT RightHandRing1
									{
										OFFSET -12.69180 0.00000 -3.06433
										CHANNELS 3 Zrotation Xrotation Yrotation
										JOINT RightHandRing2
										{
											OFFSET -5.62556 0.00000 0.00000
											CHANNELS 3 Zrotation Xrotation Yrotation
											JOINT RightHandRing3
											{
												OFFSET -3.56744 0.00000 0.00000
												CHANNELS 3 Zrotation Xrotation Yrotation
												End site
												{
													OFFSET 0.00000 0.00000 0.00000
												}
											}
										}
									}
									JOINT RightHandPinky1
									{
										OFFSET -11.11390 0.00000 -6.03719
										CHANNELS 3 Zrotation Xrotation Yrotation
										JOINT RightHandPinky2
										{
											OFFSET -4.52789 0.00000 0.00000
											CHANNELS 3 Zrotation Xrotation Yrotation
											JOINT RightHandPinky3
											{
												OFFSET -2.46976 0.00000 0.00000
												CHANNELS 3 Zrotation Xrotation Yrotation
												End site
												{
													OFFSET 0.00000 0.00000 0.00000
												}
											}
										}
									}
								}
							}
						}
					}
					JOINT LeftShoulder
					{
						OFFSET 0.01000 7.91373 5.19711
						CHANNELS 3 Zrotation Xrotation Yrotation
						JOINT LeftArm
						{
							OFFSET 18.41580 0.00000 0.00000
							CHANNELS 3 Zrotation Xrotation Yrotation
							JOINT LeftForeArm
							{
								OFFSET 29.11090 0.00000 0.00000
								CHANNELS 3 Zrotation Xrotation Yrotation
								JOINT LeftHand
								{
									OFFSET 24.65040 0.00000 0.00000
									CHANNELS 3 Zrotation Xrotation Yrotation
									JOINT LeftHandThumb1
									{
										OFFSET 5.35114 -0.85590 3.97906
										CHANNELS 3 Zrotation Xrotation Yrotation
										JOINT LeftHandThumb2
										{
											OFFSET 4.52789 0.00000 0.00000
											CHANNELS 3 Zrotation Xrotation Yrotation
											JOINT LeftHandThumb3
											{
												OFFSET 2.46977 0.00000 0.00000
												CHANNELS 3 Zrotation Xrotation Yrotation
												End site
												{
													OFFSET 0.00000 0.00000 0.00000
												}
											}
										}
									}
									JOINT LeftHandIndex1
									{
										OFFSET 14.26970 0.00000 2.88139
										CHANNELS 3 Zrotation Xrotation Yrotation
										JOINT LeftHandIndex2
										{
											OFFSET 5.48836 0.00000 0.00000
											CHANNELS 3 Zrotation Xrotation Yrotation
											JOINT LeftHandIndex3
											{
												OFFSET 3.01859 0.00000 0.00000
												CHANNELS 3 Zrotation Xrotation Yrotation
												End site
												{
													OFFSET 0.00000 0.00000 0.00000
												}
											}
										}
									}
									JOINT LeftHandMiddle1
									{
										OFFSET 14.26970 0.00000 -0.09147
										CHANNELS 3 Zrotation Xrotation Yrotation
										JOINT LeftHandMiddle2
										{
											OFFSET 6.17440 0.00000 0.00000
											CHANNELS 3 Zrotation Xrotation Yrotation
											JOINT LeftHandMiddle3
											{
												OFFSET 3.56744 0.00000 0.00000
												CHANNELS 3 Zrotation Xrotation Yrotation
												End site
												{
													OFFSET 0.00000 0.00000 0.00000
												}
											}
										}
									}
									JOINT LeftHandRing1
									{
										OFFSET 12.69180 0.00000 -3.06433
										CHANNELS 3 Zrotation Xrotation Yrotation
										JOINT LeftHandRing2
										{
											OFFSET 5.62556 0.00000 0.00000
											CHANNELS 3 Zrotation Xrotation Yrotation
											JOINT LeftHandRing3
											{
												OFFSET 3.56744 0.00000 0.00000
												CHANNELS 3 Zrotation Xrotation Yrotation
												End site
												{
													OFFSET 0.00000 0.00000 0.00000
												}
											}
										}
									}
									JOINT LeftHandPinky1
									{
										OFFSET 11.11390 0.00000 -6.03719
										CHANNELS 3 Zrotation Xrotation Yrotation
										JOINT LeftHandPinky2
										{
											OFFSET 4.52789 0.00000 0.00000
											CHANNELS 3 Zrotation Xrotation Yrotation
											JOINT LeftHandPinky3
											{
												OFFSET 2.46976 0.00000 0.00000
												CHANNELS 3 Zrotation Xrotation Yrotation
												End site
												{
													OFFSET 0.00000 0.00000 0.00000
												}
											}
										}
									}
								}
							}
						}
					}
					JOINT pCube4
					{
						OFFSET 0.00000 10.91090 1.10792
						CHANNELS 3 Zrotation Xrotation Yrotation
						End site
						{
							OFFSET 0.00000 0.00000 0.00000
						}
					}
				}
			}
		}
	}
	JOINT RightUpLeg
	{
		OFFSET -9.98441 0.00000 0.00000
		CHANNELS 3 Zrotation Xrotation Yrotation
		JOINT RightLeg
		{
			OFFSET 0.00000 -42.11790 0.00000
			CHANNELS 3 Zrotation Xrotation Yrotation
			JOINT RightFoot
			{
				OFFSET 0.00000 -45.00020 -0.00001
				CHANNELS 3 Zrotation Xrotation Yrotation
				JOINT RightForeFoot
				{
					OFFSET 0.00000 -3.74820 0.00000
					CHANNELS 3 Zrotation Xrotation Yrotation
					JOINT RightToeBase
					{
						OFFSET 0.00000 0.06325 14.43120
						CHANNELS 3 Zrotation Xrotation Yrotation
						End site
						{
							OFFSET 0.00000 0.00000 0.00000
						}
					}
				}
			}
		}
	}
	JOINT LeftUpLeg
	{
		OFFSET 9.98441 0.00000 0.00000
		CHANNELS 3 Zrotation Xrotation Yrotation
		JOINT LeftLeg
		{
			OFFSET 0.00000 -42.11800 0.00000
			CHANNELS 3 Zrotation Xrotation Yrotation
			JOINT LeftFoot
			{
				OFFSET 0.00000 -45.00070 0.00000
				CHANNELS 3 Zrotation Xrotation Yrotation
				JOINT LeftForeFoot
				{
					OFFSET 0.00000 -3.74824 0.00000
					CHANNELS 3 Zrotation Xrotation Yrotation
					JOINT LeftToeBase
					{
						OFFSET 0.00000 0.06325 14.43110
						CHANNELS 3 Zrotation Xrotation Yrotation
						End site
						{
							OFFSET 0.00000 0.00000 0.00000
						}
					}
				}
			}
		}
	}
}
MOTION
Frames: 4
Frame Time: 0.050000
-0.03526895786587957 0.01512306083713384 0.027868068752518366 -0.012445788843450259 -0.018101460729296064 -0.025513171367708948 -2.17719513414417 0.22363291732612853 -0.8167013043240343 -0.9407084785590168 3.7294600310362314 0.3391547056601373 -1.1735966840751364 -1.8481208151493889 -1.388527585932912 0.12891584794971347 0.35482953805410106 -0.8439806085165362 -0.1584991079150552 12.794354086732131 0.7486744390640598 0.5372221913654475 0.5935753842312188 1.1131817356560738 0.32304263196870614 -13.78350643448453 0.10160608459187695 -3.6562661122948374 1.3442194943567516 -15.66524452143865 73.41052378522461 15.954667888916369 -0.6771169375625121 -3.675895307142502 7.402454560133756 42.52416073191059 22.707584142809427 0.016158433879501343 -4.977759957992435 4.511526901286759 -0.14731507615382977 -1.5581095688563507 -0.020405602187180884 0.01917816180228721 -56.25346757716395 0.04435451693207067 -0.029328355976707316 -56.20143544096408 -38.79100207082334 0.004678482760184018 0.04978200124087113 0.0032268716113519535 0.02995573918828116 0.02436913277674718 -0.018447438799048265 -0.029441522377095453 0.027549880326449862 -36.718064796936076 0.0014260266662529048 0.011337367088771358 0.006658947708999742 -0.03003871414499739 -0.0399017272331729 0.03444829958624352 0.014593690669546341 0.019834490193989817 -19.73287639259398 -0.022006119502584125 0.020341145998454522 0.00919921398035655 0.045504859069512925 0.006488011279746158 -0.009499051754223317 -0.028664593250409074 0.03807496119489573 24.04015071189009 0.005863402644366347 0.00946038842084429 28.834487298190197 0.018181673581224342 0.035967889202571206 28.88636990600473 0.011508086720604964 0.0013279095831402175 5.470169206523365 1.3533636265640583 13.811569490042054 -71.14311490661292 29.46148644080724 -6.920517293555815 -7.087509316679846 -7.761571911810404 -89.17017351394136 -9.847470628778847 -5.9100000475140835 3.811063702776108 -0.44178114703220656 0.07308090900939374 -8.109833300783842 -0.040150922138164055 -0.03654172183695594 44.522178333719374 -0.005236768082687059 0.027716543847850487 44.570845784157605 12.42888087111466 0.004591631419377842 0.03354813685570349 0.02848501538886935 -0.0191859832227119 0.014200384463566834 -0.025079671066348078 -0.015644684791691725 0.04015832396555872 11.142314571074438 -0.00891440556995612 -0.022621396059130827 -0.04360026581428191 -0.010467315449656798 0.033780155629301555 -0.03921640225794988 -0.02937121982711882 0.006722737520515038 4.746994793707947 -0.017277010356211566 0.03627634411015257 -0.012164610622879561 0.04853034661002358 -0.03896996065458771 0.04601404530068188 -0.005787603769940314 -0.033924811495105414 -5.628213535420304 -0.029170020561822718 0.03752083503903721 -6.753736801883843 -0.003490825600833327 0.0369209573908647 -6.721721882055138 0.04770104647932956 0.006230784370262941 0.023265333118415717 -0.011345329665070496 0.04983185464181973 8.090945747918123 3.471045023363722 -19.20470258138238 0.0036923530168731867 10.407733700195992 0.056060614342073836 -5.648639884511537 -15.610689121513612 3.2259310115309376 0.016885473978706857 -0.032709192408017555 -0.009317096099673627 -0.028630493308767067 4.673665092857623 0.03284275740831682 12.477598330877553 -8.230651106961666 6.870775097570328 -0.0008064456990587035 46.399087488615464 0.015544112245518178 -4.305747349924017 -14.753464939385413 -3.838523234644945 -0.02131827458886163 -0.011987362330092396 0.03107610092847634 0.046835587494036754 -10.771994171650876 0.029644489903219048 
0.008198651020056104 -0.03395764316666046 0.005769931871796474 -0.038710492834598306 0.031013700952589048 -0.006223901854995307 -2.3856426159570425 0.199219923570035 -0.8719357121323208 -1.0009482775798402 3.7245245883127454 0.3619511525290621 -1.2169853859337065 -1.899520906966006 -1.4509247917988055 0.0627598443460322 0.3522887271306758 -0.9063948809935103 -0.17721899594793541 13.021558388628344 1.078624926650489 0.5144346800730782 0.6564020610330101 1.8955087784480027 0.3177401407787023 -13.731917119692072 0.17842385686689227 -3.793002775058996 1.425989660459991 -15.710199423224683 73.24330980150715 15.27760992919205 -0.8550734605983463 -3.3213677067741587 7.478973381802724 42.37354288650594 22.90888495648296 0.009431497806482288 -4.861528236363188 4.523024787900175 -0.11419449949810578 -1.556459838400411 0.013666479431106864 -0.036874922058777175 -56.21339669064264 -0.04020617340451453 0.004811602518369211 -56.27502427110826 -38.75805513662811 0.013305560818239732 0.03661261001073899 0.0039430626540700115 0.014449575662698503 -0.026175668893391225 0.0035357278871707047 0.043439100638549874 0.0014304050912231046 -36.69408966887699 0.025490026752891366 0.013135113247860156 -0.007467974094642949 -0.012564101659794102 0.007862660899148563 -0.029014949022784883 0.04352731654197407 -0.002646164514230381 -19.74595122900744 -0.04391912504548119 -0.04089624314111676 0.03124852243504947 -0.014921808354598403 0.008884872338168637 0.0033943476093468037 -0.0374998197473722 0.008321138214580531 24.07879458731506 0.0034185616854538253 -0.04370684590076548 28.882214857866103 -0.000874619583976825 -0.008374590364514581 28.912491844612404 -0.014007974219377472 -0.04182184276598345 5.680181607609381 1.3736793087706292 13.829042024178687 -71.05230101612084 29.796362401050068 -7.289191300884692 -7.231038734366795 -7.905677821611792 -89.5834554410768 -8.868497651210403 -5.125729564519063 2.8770436996723223 -0.5012499028685432 0.04644463778449848 -8.112577879931468 -0.037406516231365844 0.013851754399842152 44.597569107370326 0.0011658953168554175 0.027701221216531645 44.55751077610758 12.478350274661135 0.008328589755992455 0.02954516191433104 0.020462763399265973 -0.032412498071409085 0.02410629138185889 0.016945072122056055 0.020654729989884248 -0.03865970653797473 11.068764877696733 0.0457879886483507 0.03613455313049562 0.018870620547836864 0.027680078272653768 0.022425144429801515 0.024857931231467383 0.01093276455156187 -0.039554751875706645 4.751891583087328 -0.017327893783688562 -0.03764695328184152 0.005505997402851187 0.0007761229433018742 0.03162985192130182 0.001928064677147808 0.02826225278534729 -0.00989239973867765 -5.600833375556906 0.000849272597964287 -0.041802660824692396 -6.676980960469812 0.04747631905797936 -0.019538329602731497 -6.720127165426332 0.012116992390494232 0.011226241682258591 -0.04942176050151902 0.003980277373076861 8.452365649564462e-05 8.018891051751755 3.456686579203722 -19.264625820800163 -0.016462987521689135 10.399872233869523 0.042503338432075766 -5.611987145498812 -15.703997146706408 3.201898653074478 0.013822436468784956 0.02001650535008595 -0.03550892007637503 0.03102170586362654 4.730692137189298 0.04502412729521677 12.500902490627455 -8.243784783988632 6.864505787537604 0.012530261661808678 46.41109349090539 0.005511157832318859 -4.356882748818252 -14.776330447316244 -3.851217957894763 -0.027838436097443433 -0.03279031749681708 0.001615266432305926 0.017028167664001975 -10.75363844921209 -0.041298686793195205 
-0.03433879465497475 -0.037566881288853944 0.03280935927210165 -0.048763323139818085 0.043576998631396434 -0.01687003556108593 -2.4788627357802016 0.17783929302822826 -0.8132837118092199 -1.0135540775143073 3.710944078461563 0.3522541832348662 -1.1876057984816897 -1.9547552239073165 -1.3915598460078789 -0.0682544033287063 0.40579353866516943 -0.8369733883502009 -0.21558251295569628 13.200811295941337 1.3971723129996585 0.5778607609986954 0.7168895659020902 2.676353621197924 0.24099304862144985 -13.614594335975287 0.19919914327133212 -3.876307239413926 1.3986956649462827 -15.742478915331327 73.19429718122497 15.221370221450174 -1.1028690063614903 -2.432470456733386 7.606130524296751 42.88322967898678 22.82305178144744 -0.08505606312255784 -4.631249220225356 4.559657070961363 -0.1442951267384095 -1.6120690112535159 0.02500416347016245 0.019175781407512246 -56.223597439749994 0.0075282761326439475 -0.014022490747726594 -56.23010059690055 -38.773507897177815 0.031099615321561306 0.004534924537172915 -0.014995398561999843 0.006509523424686543 0.037742170896014095 0.023511465549876057 -0.02873937288526089 0.00935739191524325 -36.70821239713284 0.041456038167277914 0.03436136851939486 0.016644136955508183 -0.0295261899373722 -0.005081733739624223 -0.04747784034058078 0.03351465314792557 -0.015830439635386127 -19.761283530219735 -0.014374824250910086 -0.004699708590125319 -0.019290387983332505 0.014534753116945643 0.0020798267910491475 -0.015108701647192527 0.040528260250199365 -0.04592155853560228 24.071538722884522 -0.03763356462853651 -0.04534197832895279 28.856207851147996 -0.006386143373247462 -0.04377806180977749 28.86427174268082 -0.023602611359792726 0.04114700382281707 5.860030437330317 1.3898885769878073 13.915405696989023 -70.79739052848322 30.452079307001902 -7.49124915683519 -6.004014623094813 -8.68607611061829 -90.48683448850518 -7.766385152432823 -4.353363802832919 1.57381234446267 -0.4994195975098316 0.11480111377092031 -8.115459054478752 0.022454787746738772 -0.016686180983207576 44.517807298844914 0.005663922718052836 -0.010963534836725934 44.54494449141873 12.416272208376846 0.006323886121056879 -0.041680330865769645 -0.042668228275100355 0.038804831718606485 0.016608014357497147 -0.014047197454308177 -0.022029676127405237 -0.036691793265407835 11.146672892880327 -0.0029886058822512253 0.00906970467460942 0.01305972354715917 0.0010687242031488598 -0.010413817758178833 -1.2332777703960485e-05 0.016238675534127188 0.02280240769240371 4.766295102853945 -0.04880948980465174 0.02157520509657478 -0.044009194422219004 -0.027724651005546032 0.03569586821759647 0.011943025601558646 0.006003150910927444 -0.021130145499471873 -5.626893962977906 -0.002429628735864581 0.036740552848358164 -6.739766688871756 -0.04995507157021858 -0.043933376843771355 -6.681656351306766 0.04370038265713926 -0.015514534307492283 0.036282395885623944 0.031768402544232896 -0.04611445182586413 8.02449374970683 3.5378439545656577 -19.238168112743377 0.023123084000410542 10.411513648102853 0.00773854154008732 -5.596267293319755 -15.623808997794246 3.1426563850639666 -0.007753075023713481 -0.00416847729551594 0.021573787700767382 0.014915263820949992 4.745536445155246 0.01628999656755459 12.491273456786704 -8.209130315531784 6.864869505166319 -0.019750414118192523 46.37583977151209 -0.028063328298446676 -4.358714426755169 -14.735266122424413 -3.851840496232338 0.011985071122188636 0.017905477089036982 0.03391045166514552 -0.013646107990073465 -10.754990707891137 0.02697023365121098 
0.02828085638067921 0.007239693680876969 -0.029261113582703807 0.028600459079364562 -0.008145433727893265 0.0407419744766466 -2.5586543089111196 0.06434758581715971 -0.796614789686486 -1.031411921218748 3.7290696647443875 0.3796936644119639 -1.1718525325559674 -2.066140902258646 -1.465406740989022 -0.09947788574533172 0.45447538334799004 -0.9160252529319698 -0.3410952163045888 13.4601568031306 1.746925205097646 0.6424375377306533 0.7219626173545414 3.5452104622174136 0.20154188516375823 -13.503949743404224 0.3164865842497138 -3.967284526488098 1.4135080004523708 -15.757299250958722 73.19475863457247 15.083764698403343 -1.3383473340840413 -1.650784704790699 7.588880205943358 43.35050879925827 22.762190283371798 -0.04928914806589964 -4.411790968707961 4.563829534044315 -0.0869079100927759 -1.6310469724620182 0.00314789964892297 -0.023855199177392546 -56.18584763993506 0.01241783124895571 0.010178655438434285 -56.2444032361622 -38.77715667406954 0.03663159166489366 0.04333695452426512 0.009072648856312841 0.04337502677902418 -0.04154152905166527 -0.0038832143162223125 -0.03110959218530744 0.04696509775683975 -36.70402318396077 -0.03330387915662852 -0.022410625200826574 -0.036412107884770076 0.0025120953870892 -0.019694386935750697 0.020760224595590817 0.011339937525630707 0.005803160483474315 -19.79061525867697 0.009962788741271003 -0.00045993634346301257 -0.004098912295317826 -0.037345584616531244 0.006632902681165076 -0.03346337825966149 0.01257482768668657 -0.009275977669638766 24.02133450749781 0.04923607240095168 -0.012150940099919476 28.902480194185152 -0.04635590817716167 0.04067444144914385 28.873236451287468 0.044939924672782204 -0.025008203325999755 6.004082770319902 1.4145544071023395 13.941985831882375 -70.48381986645929 31.010696121923953 -7.808002903150275 -3.3671613925115316 -9.985596533995457 -91.61313275488598 -6.38306796847722 -3.6386218196933315 0.38514086423247706 -0.48259734761725714 0.07655315814301294 -8.123422319689054 -0.010173604461824613 -0.006218039697516083 44.526229221493764 0.04660055963203368 -0.01741343854817404 44.528178746977346 12.501053871267235 0.024961444916519263 0.028798692445634773 0.026156174367005923 -0.004645561916409125 -0.014507404554629127 -0.019875353153960777 -0.006694417746774797 0.004197461115935242 11.09683402745812 -0.029410431976049898 0.004944344411966731 0.0249966184866843 0.024583308071306497 0.017210267224233713 0.010794726961571834 0.03686381515530591 0.016944417594942668 4.757091622311591 -0.019020554819263825 0.0016896887198279875 -0.006818486150244748 -0.008837364260209823 0.03383871327944716 -0.037205944251285546 0.033564894326876184 0.036727135632475295 -5.621299336313103 -0.034892657953679664 0.011937380782411905 -6.758372907305576 -0.03246494408424664 -0.04510216814388676 -6.728163022708354 -0.006432393803687625 0.027164975180078002 0.008865706233332807 0.003715311497172392 -0.04133752625111168 8.041483176279204 3.5023771725337483 -19.190947580305505 -0.006528629619253715 10.365937346889936 0.021696709387155115 -5.598966426735651 -15.627667090148876 3.225848195171658 0.0025673227789320733 0.04186876671858536 0.02340783420554584 0.016396312667423127 4.651026277309844 0.04415738814586937 12.445281738560618 -8.24638567725466 6.879156181322152 -0.023617127279225138 46.42373233936959 0.03652987390833807 -4.2893153913088335 -14.7333787240571 -3.8514473209780355 0.003435941830914461 0.038900485820576265 0.03303737023585731 0.04736242727729808 -10.721104898567583 -0.04831914722916662 
